<?xml version="1.0" encoding="UTF-8" standalone="no"?>
<svg
   xmlns:dc="http://purl.org/dc/elements/1.1/"
   xmlns:cc="http://creativecommons.org/ns#"
   xmlns:rdf="http://www.w3.org/1999/02/22-rdf-syntax-ns#"
   xmlns:svg="http://www.w3.org/2000/svg"
   xmlns="http://www.w3.org/2000/svg"
   xmlns:sodipodi="http://sodipodi.sourceforge.net/DTD/sodipodi-0.dtd"
   xmlns:inkscape="http://www.inkscape.org/namespaces/inkscape"
   version="1.1"
   id="svg2"
   xml:space="preserve"
   width="1359.0267"
   height="276.02667"
   viewBox="0 0 1359.0267 276.02667"
   sodipodi:docname="ProgressTeaching-Logo-White-2021.eps"><metadata
     id="metadata8"><rdf:RDF><cc:Work
         rdf:about=""><dc:format>image/svg+xml</dc:format><dc:type
           rdf:resource="http://purl.org/dc/dcmitype/StillImage" /></cc:Work></rdf:RDF></metadata><defs
     id="defs6" /><sodipodi:namedview
     pagecolor="#ffffff"
     bordercolor="#666666"
     borderopacity="1"
     objecttolerance="10"
     gridtolerance="10"
     guidetolerance="10"
     inkscape:pageopacity="0"
     inkscape:pageshadow="2"
     inkscape:window-width="640"
     inkscape:window-height="480"
     id="namedview4" /><g
     id="g10"
     inkscape:groupmode="layer"
     inkscape:label="ink_ext_XXXXXX"
     transform="matrix(1.3333333,0,0,-1.3333333,0,276.02667)"><g
       id="g12"
       transform="scale(0.1)"><path
         d="m 1722.51,1875.61 c 209.48,-209.48 220.22,-563.97 -16.11,-800.3 -84.87,-84.869 -188.86,-132.029 -300.08,-158.38 281.44,90.43 243.44,568.06 243.44,568.06 -3.1,81.12 -35.87,160.86 -96.44,221.44 -136.95,136.95 -335.7,142.3 -467.27,10.73 C 932.977,1564.09 943.707,1306.25 946.383,1099.48 l 2.711,-217.539 C 947.41,713.781 948.824,538.41 897.648,376.898 H 662.313 c 75.199,148.102 71.378,342.352 69.242,507.524 0.914,0.039 0.457,0.078 0,0.117 0,0.039 0,0.082 0,0.109 l -5.461,220.222 c 0.035,0 0.074,0 0.074,0 0,273.91 -5.348,563.93 214.867,784.15 225.555,225.6 547.825,220.21 781.475,-13.41"
         style="fill:#ffffff;fill-opacity:1;fill-rule:nonzero;stroke:none"
         id="path14" /><path
         d="m 1553.32,1239.11 c 68.44,68.44 99.84,157.96 96.44,245.88 0,0 38,-477.63 -243.44,-568.06 -149.06,-35.41 -311.07,-33.418 -457.226,-34.989 l -2.711,217.539 c 198.747,10.73 448.487,-18.79 606.937,139.63"
         style="fill:#ffffff;fill-opacity:1;fill-rule:nonzero;stroke:none"
         id="path16" /><path
         d="M 646.539,322.512 H 850.406 C 825.656,267.629 791.246,215.422 743.238,167.41 564.922,-10.8984 310.184,-6.66016 129.766,173.789 -40.0703,343.59 -48.5508,623.801 136.105,808.5 181.172,853.57 232.73,885.379 288.109,907.801 135.762,689.07 184.383,498.691 184.383,498.691 c -0.192,-69.589 26.922,-138.98 79.094,-191.152 106.132,-106.168 261.117,-108.269 367.25,-2.141 5.539,5.543 10.808,11.231 15.812,17.114"
         style="fill:#ffffff;fill-opacity:1;fill-rule:nonzero;stroke:none"
         id="path18" /><path
         d="m 731.555,884.539 c 0.457,-0.039 0.914,-0.078 0,-0.117 0,0.039 0,0.078 0,0.117"
         style="fill:#ffffff;fill-opacity:1;fill-rule:nonzero;stroke:none"
         id="path20" /><path
         d="m 731.555,884.648 c 0,-0.027 0,-0.07 0,-0.109 -0.461,0.039 -0.879,0.082 0,0.109"
         style="fill:#ffffff;fill-opacity:1;fill-rule:nonzero;stroke:none"
         id="path22" /><path
         d="M 675.527,961.34 V 785.969 C 530.551,785.09 367.547,789.398 261.375,683.23 209.586,631.441 184.57,564.988 184.383,498.691 c 0,0 -48.621,190.379 103.726,409.11 0.039,0 0.039,0.039 0.039,0.039 120.188,48.648 258.329,53.199 387.379,53.5"
         style="fill:#ffffff;fill-opacity:1;fill-rule:nonzero;stroke:none"
         id="path24" /><path
         d="m 2440.05,1653.23 h 71.21 c 56.03,0 95.37,9.72 118.04,29.19 22.67,19.46 34,44.36 34,74.73 0,29.51 -9.83,54.54 -29.51,75.06 -19.67,20.53 -56.67,30.79 -110.98,30.79 h -82.76 z m -291.89,400.95 h 483.07 c 105.21,0 184.01,-25.02 236.4,-75.06 52.38,-50.04 78.59,-121.24 78.59,-213.63 0,-94.94 -28.55,-169.15 -85.65,-222.6 -57.09,-53.47 -144.24,-80.21 -261.42,-80.21 h -159.1 V 1113.7 h -291.89 v 940.48"
         style="fill:#ffffff;fill-opacity:1;fill-rule:nonzero;stroke:none"
         id="path26" /><path
         d="m 3420.28,1673.12 h 122.54 c 13.24,0 38.9,4.27 76.98,12.82 19.24,3.85 34.96,13.69 47.15,29.51 12.19,15.83 18.28,34.01 18.28,54.53 0,30.37 -9.62,53.67 -28.87,69.93 -19.24,16.25 -55.39,24.38 -108.41,24.38 H 3420.28 Z M 3128.39,1113.7 v 940.48 h 484.35 c 89.81,0 158.46,-7.7 205.93,-23.1 47.47,-15.39 85.75,-43.94 114.83,-85.64 29.08,-41.7 43.63,-92.49 43.63,-152.37 0,-52.18 -11.13,-97.18 -33.38,-135.03 -22.26,-37.85 -52.86,-68.55 -91.79,-92.06 -24.82,-14.98 -58.84,-27.38 -102.06,-37.21 34.61,-11.56 59.83,-23.12 75.65,-34.67 10.68,-7.71 26.17,-24.2 46.48,-49.46 20.29,-25.26 33.86,-44.73 40.7,-58.43 L 4053.47,1113.7 H 3725.1 l -155.34,287.4 c -19.67,37.2 -37.21,61.36 -52.61,72.5 -20.95,14.54 -44.69,21.81 -71.21,21.81 h -25.66 V 1113.7 h -291.89"
         style="fill:#ffffff;fill-opacity:1;fill-rule:nonzero;stroke:none"
         id="path28" /><path
         d="m 4404.35,1582.02 c 0,-94.95 17.64,-163.17 52.93,-204.65 35.29,-41.49 83.29,-62.23 144.03,-62.23 62.43,0 110.75,20.31 144.98,60.94 34.21,40.62 51.32,113.56 51.32,218.77 0,88.53 -17.86,153.21 -53.57,194.06 -35.71,40.84 -84.15,61.27 -145.3,61.27 -58.6,0 -105.65,-20.75 -141.14,-62.23 -35.51,-41.49 -53.25,-110.13 -53.25,-205.93 z m -290.6,1.28 c 0,153.54 42.75,273.07 128.3,358.61 85.54,85.54 204.65,128.31 357.33,128.31 156.53,0 277.14,-42.02 361.82,-126.06 84.68,-84.04 127.02,-201.76 127.02,-353.16 0,-109.92 -18.5,-200.07 -55.49,-270.41 -37,-70.35 -90.45,-125.1 -160.38,-164.23 -69.93,-39.13 -157.08,-58.7 -261.43,-58.7 -106.06,0 -193.84,16.89 -263.34,50.68 -69.5,33.77 -125.85,87.25 -169.04,160.38 -43.2,73.14 -64.79,164.66 -64.79,274.58"
         style="fill:#ffffff;fill-opacity:1;fill-rule:nonzero;stroke:none"
         id="path30" /><path
         d="m 5743.83,1454.34 v 195.68 h 449.06 v -400.97 c -85.96,-58.59 -161.98,-98.47 -228.06,-119.63 -66.08,-21.18 -144.45,-31.76 -235.12,-31.76 -111.62,0 -202.62,19.02 -272.96,57.09 -70.36,38.06 -124.89,94.73 -163.59,170.02 -38.71,75.26 -58.06,161.66 -58.06,259.17 0,102.65 21.17,191.92 63.51,267.84 42.34,75.91 104.35,133.54 186.04,172.89 63.72,30.37 149.48,45.55 257.25,45.55 103.93,0 181.65,-9.42 233.2,-28.23 51.53,-18.83 94.3,-48.01 128.3,-87.57 34.01,-39.56 59.56,-89.71 76.67,-150.44 l -280.35,-50.03 c -11.55,35.49 -31.11,62.64 -58.7,81.47 -27.59,18.81 -62.77,28.23 -105.53,28.23 -63.73,0 -114.52,-22.13 -152.36,-66.4 -37.85,-44.27 -56.78,-114.3 -56.78,-210.1 0,-101.79 19.14,-174.5 57.42,-218.13 38.27,-43.62 91.63,-65.43 160.06,-65.43 32.5,0 63.51,4.7 93.02,14.11 29.51,9.41 63.29,25.45 101.36,48.12 v 88.52 h -194.38"
         style="fill:#ffffff;fill-opacity:1;fill-rule:nonzero;stroke:none"
         id="path32" /><path
         d="m 6687.49,1673.12 h 122.53 c 13.25,0 38.91,4.27 76.98,12.82 19.25,3.85 34.96,13.69 47.15,29.51 12.19,15.83 18.29,34.01 18.29,54.53 0,30.37 -9.62,53.67 -28.87,69.93 -19.25,16.25 -55.39,24.38 -108.41,24.38 h -127.67 z m -291.9,-559.42 v 940.48 h 484.36 c 89.81,0 158.45,-7.7 205.92,-23.1 47.48,-15.39 85.74,-43.94 114.84,-85.64 29.07,-41.7 43.61,-92.49 43.61,-152.37 0,-52.18 -11.11,-97.18 -33.38,-135.03 -22.25,-37.85 -52.85,-68.55 -91.78,-92.06 -24.83,-14.98 -58.85,-27.38 -102.06,-37.21 34.6,-11.56 59.83,-23.12 75.64,-34.67 10.69,-7.71 26.17,-24.2 46.49,-49.46 20.29,-25.26 33.87,-44.73 40.7,-58.43 L 7320.67,1113.7 H 6992.3 l -155.34,287.4 c -19.67,37.2 -37.21,61.36 -52.6,72.5 -20.96,14.54 -44.7,21.81 -71.21,21.81 h -25.66 V 1113.7 h -291.9"
         style="fill:#ffffff;fill-opacity:1;fill-rule:nonzero;stroke:none"
         id="path34" /><path
         d="m 7439.32,2054.18 h 778.82 v -200.79 h -487.57 v -149.48 h 452.28 v -191.82 h -452.28 v -185.4 h 501.67 V 1113.7 h -792.92 v 940.48"
         style="fill:#ffffff;fill-opacity:1;fill-rule:nonzero;stroke:none"
         id="path36" /><path
         d="m 8364.37,1424.84 276.49,17.31 c 6,-44.9 18.19,-79.13 36.57,-102.63 29.94,-38.08 72.7,-57.1 128.31,-57.1 41.47,0 73.45,9.73 95.9,29.19 22.46,19.45 33.69,42.02 33.69,67.67 0,24.38 -10.7,46.2 -32.08,65.45 -21.4,19.24 -70.99,37.42 -148.83,54.53 -127.45,28.65 -218.34,66.72 -272.65,114.19 -54.75,47.48 -82.11,107.99 -82.11,181.55 0,48.33 14,93.99 42.01,136.97 28.01,42.98 70.14,76.76 126.38,101.37 56.24,24.58 133.33,36.88 231.27,36.88 120.19,0 211.81,-22.35 274.9,-67.04 63.09,-44.7 100.61,-115.8 112.58,-213.31 l -273.92,-16.03 c -7.28,42.33 -22.57,73.12 -45.88,92.37 -23.31,19.25 -55.49,28.88 -96.54,28.88 -33.79,0 -59.24,-7.17 -76.35,-21.5 -17.11,-14.34 -25.65,-31.76 -25.65,-52.29 0,-14.97 7.05,-28.44 21.16,-40.41 13.68,-12.41 46.2,-23.95 97.52,-34.64 127.01,-27.38 218.01,-55.07 272.96,-83.08 54.95,-28.02 94.95,-62.77 119.97,-104.25 25.01,-41.48 37.54,-87.89 37.54,-139.22 0,-60.29 -16.7,-115.9 -50.05,-166.8 -33.35,-50.9 -79.98,-89.49 -139.86,-115.78 -59.87,-26.3 -135.35,-39.46 -226.45,-39.46 -159.97,0 -270.72,30.79 -332.31,92.39 -61.59,61.58 -96.45,139.84 -104.57,234.79"
         style="fill:#ffffff;fill-opacity:1;fill-rule:nonzero;stroke:none"
         id="path38" /><path
         d="m 9339.47,1424.84 276.5,17.31 c 5.99,-44.9 18.18,-79.13 36.57,-102.63 29.93,-38.08 72.7,-57.1 128.3,-57.1 41.48,0 73.45,9.73 95.91,29.19 22.45,19.45 33.68,42.02 33.68,67.67 0,24.38 -10.69,46.2 -32.08,65.45 -21.39,19.24 -70.99,37.42 -148.83,54.53 -127.45,28.65 -218.33,66.72 -272.65,114.19 -54.75,47.48 -82.11,107.99 -82.11,181.55 0,48.33 14,93.99 42.01,136.97 28.01,42.98 70.14,76.76 126.38,101.37 56.24,24.58 133.33,36.88 231.28,36.88 120.18,0 211.8,-22.35 274.87,-67.04 63.1,-44.7 100.6,-115.8 112.6,-213.31 l -273.92,-16.03 c -7.28,42.33 -22.57,73.12 -45.88,92.37 -23.3,19.25 -55.48,28.88 -96.54,28.88 -33.79,0 -59.24,-7.17 -76.35,-21.5 -17.11,-14.34 -25.65,-31.76 -25.65,-52.29 0,-14.97 7.05,-28.44 21.16,-40.41 13.69,-12.41 46.2,-23.95 97.52,-34.64 127.01,-27.38 218.01,-55.07 272.96,-83.08 55,-28.02 95,-62.77 120,-104.25 25,-41.48 37.5,-87.89 37.5,-139.22 0,-60.29 -16.7,-115.9 -50,-166.8 -33.4,-50.9 -80,-89.49 -139.9,-115.78 -59.87,-26.3 -135.35,-39.46 -226.45,-39.46 -159.96,0 -270.72,30.79 -332.3,92.39 -61.6,61.58 -96.46,139.84 -104.58,234.79"
         style="fill:#ffffff;fill-opacity:1;fill-rule:nonzero;stroke:none"
         id="path40" /><path
         d="M 2401.96,14.2305 V 707.531 h -247.61 v 141.168 h 663.14 V 707.531 H 2570.45 V 14.2305 h -168.49"
         style="fill:#ffffff;fill-opacity:1;fill-rule:nonzero;stroke:none"
         id="path42" /><path
         d="M 3217.64,14.2305 V 848.699 h 618.74 V 707.531 H 3386.13 V 522.539 h 418.94 V 381.941 H 3386.13 V 154.828 h 466.19 V 14.2305 h -634.68"
         style="fill:#ffffff;fill-opacity:1;fill-rule:nonzero;stroke:none"
         id="path44" /><path
         d="m 4728.91,344.371 -114.99,309.66 -112.7,-309.66 z M 5039.13,14.2305 H 4855.84 L 4782.98,203.781 H 4449.42 L 4380.55,14.2305 H 4201.81 L 4526.83,848.699 H 4705 L 5039.13,14.2305"
         style="fill:#ffffff;fill-opacity:1;fill-rule:nonzero;stroke:none"
         id="path46" /><path
         d="m 5953.85,321.039 163.37,-51.801 C 6092.17,178.16 6050.52,110.512 5992.27,66.3086 5934.01,22.1016 5860.12,0 5770.57,0 c -110.82,0 -201.89,37.8516 -273.23,113.559 -71.35,75.703 -107.01,179.203 -107.01,310.5 0,138.89 35.86,246.761 107.58,323.601 71.72,76.852 166.01,115.27 282.9,115.27 102.08,0 185,-30.168 248.75,-90.508 37.94,-35.672 66.4,-86.902 85.38,-153.692 l -166.78,-39.839 c -9.88,43.257 -30.45,77.41 -61.76,102.461 -31.31,25.039 -69.36,37.57 -114.13,37.57 -61.86,0 -112.05,-22.203 -150.55,-66.602 -38.53,-44.398 -57.78,-116.32 -57.78,-215.73 0,-105.512 18.97,-180.641 56.92,-225.41 37.94,-44.789 87.28,-67.168 148,-67.168 44.77,0 83.29,14.226 115.55,42.687 32.24,28.461 55.4,73.231 69.44,134.34"
         style="fill:#ffffff;fill-opacity:1;fill-rule:nonzero;stroke:none"
         id="path48" /><path
         d="M 6553.8,14.2305 V 848.699 h 168.49 V 520.262 h 330.14 v 328.437 h 168.48 V 14.2305 H 7052.43 V 379.102 H 6722.29 V 14.2305 H 6553.8"
         style="fill:#ffffff;fill-opacity:1;fill-rule:nonzero;stroke:none"
         id="path50" /><path
         d="M 7681.41,14.2305 V 848.699 h 168.48 V 14.2305 h -168.48"
         style="fill:#ffffff;fill-opacity:1;fill-rule:nonzero;stroke:none"
         id="path52" /><path
         d="M 8303.56,14.2305 V 848.699 h 163.93 l 341.53,-557.258 v 557.258 h 156.53 V 14.2305 H 8796.5 L 8460.09,558.398 V 14.2305 h -156.53"
         style="fill:#ffffff;fill-opacity:1;fill-rule:nonzero;stroke:none"
         id="path54" /><path
         d="m 9823.36,321.039 v 140.59 h 363.14 V 129.211 C 10151.2,95.0586 10100.1,64.9805 10033.1,38.9883 9966.13,13.0117 9898.29,0 9829.62,0 c -87.29,0 -163.37,18.3008 -228.26,54.9297 -64.89,36.6094 -113.65,88.9803 -146.28,157.1013 -32.65,68.11 -48.96,142.207 -48.96,222.278 0,86.89 18.22,164.121 54.65,231.671 36.43,67.54 89.73,119.329 159.95,155.391 53.5,27.699 120.1,41.559 199.79,41.559 103.6,0 184.49,-21.731 242.79,-65.18 58.2,-43.461 95.7,-103.512 112.4,-180.148 l -167.3,-31.313 c -11.82,40.981 -33.92,73.332 -66.36,97.051 -32.45,23.711 -72.96,35.582 -121.53,35.582 -73.63,0 -132.16,-23.344 -175.6,-70.024 -43.46,-46.668 -65.18,-115.929 -65.18,-207.757 0,-99.039 22,-173.332 66.03,-222.852 44.02,-49.519 101.69,-74.277 173.04,-74.277 35.29,0 70.67,6.918 106.16,20.777 35.48,13.84 65.93,30.633 91.34,50.371 v 105.879 h -192.94"
         style="fill:#ffffff;fill-opacity:1;fill-rule:nonzero;stroke:none"
         id="path56" /></g></g></svg>
